# xmcd
#
# Track frame offsets: 
#        300
#        18692
#        41065
#        62510
#        80543
#        99193
#        119412
#        140984
#        160608
#        179464
#        200611
#
# Disc length: 3025 seconds
#
# Revision: 2
# Processed by: cddbd v1.5.2PL0 Copyright (c) Steve Scherf et al.
# Submitted via: ExactAudioCopy v1.0b1
#
DISCID=990bcd0b
DTITLE=Robert Cray - Midnight Stroll
DYEAR=1990
DGENRE=
TTITLE0=The Forecast (Calls For Rain)
TTITLE1=These Things
TTITLE2=My Problem
TTITLE3=Labor Of Love
TTITLE4=Bouncin' Back
TTITLE5=Consequences
TTITLE6=The Things You Do To Me
TTITLE7=Walk Around Time
TTITLE8=Move A Mountain
TTITLE9=Holdin' Court
TTITLE10=Midnight Stroll
EXTD=
EXTT0=
EXTT1=
EXTT2=
EXTT3=
EXTT4=
EXTT5=
EXTT6=
EXTT7=
EXTT8=
EXTT9=
EXTT10=
PLAYORDER=
